<svg width="41" height="39" viewBox="0 0 41 39" fill="none" xmlns="http://www.w3.org/2000/svg">
<path d="M0.575318 21.1442C0.575318 22.5163 1.73959 23.6346 3.1966 23.6346L24.924 23.6346L15.705 32.3932C14.687 33.3604 14.687 34.9381 15.705 35.9233L18.1799 38.2747C19.1978 39.2418 20.8585 39.2418 21.8955 38.2747L39.8055 21.2591C40.3145 20.7755 40.5753 20.1408 40.5753 19.5001C40.5753 18.8654 40.3145 18.2246 39.8055 17.741L21.8955 0.725342C20.8775 -0.24172 19.2169 -0.24172 18.1799 0.725342L15.705 3.07674C14.687 4.04388 14.687 5.62157 15.705 6.60681L24.924 15.3353L3.20941 15.3353C1.76512 15.3353 0.588041 16.4536 0.588041 17.8257L0.575318 21.1442Z" fill="#6A6A6A"/>
</svg>
