<svg width="30" height="30" viewBox="0 0 30 30" fill="none" xmlns="http://www.w3.org/2000/svg">
<rect width="30" height="30" fill="#E5E5E5"/>
<g clip-path="url(#clip0_0_1)">
<path d="M29.4445 0.555555H0.555573V29.4444H29.4445V0.555555Z" fill="#3C3939"/>
<path d="M30 30H0V0H30V30ZM1.11111 28.8889H28.8889V1.11111H1.11111V28.8889Z" fill="#3C3939"/>
<path d="M21.6667 15.5556H7.22221C6.91555 15.5556 6.66666 15.3072 6.66666 15C6.66666 14.6928 6.91555 14.4444 7.22221 14.4444H21.6667C21.9733 14.4444 22.2222 14.6928 22.2222 15C22.2222 15.3072 21.9733 15.5556 21.6667 15.5556Z" fill="white"/>
<path d="M17.0595 20.9483L16.2739 20.1628L21.4367 15L16.2739 9.83722L17.0595 9.05167L23.0078 15L17.0595 20.9483Z" fill="white"/>
</g>
<defs>
<clipPath id="clip0_0_1">
<rect width="30" height="30" fill="white"/>
</clipPath>
</defs>
</svg>
